# xmcd
#
# Track frame offsets: 
#        150
#        20333
#        39256
#        57956
#        76579
#        95008
#        113535
#        130253
#        152801
#        171481
#
# Disc length: 2490 seconds
#
# Revision: 0
# Processed by: cddbd v1.5.2PL0 Copyright (c) Steve Scherf et al.
# Submitted via: ExactAudioCopyFreeDBPlugin 1.0
#
DISCID=7209b80a
DTITLE=周慧敏 - HIM
DYEAR=2014
DGENRE=Pop
TTITLE0=肋骨
TTITLE1=A LOVE LIKE THIS
TTITLE2=天家
TTITLE3=天盡頭
TTITLE4=美麗 - feat. 王菀之
TTITLE5=石頭雨
TTITLE6=伯拉河
TTITLE7=啡在等一個人 (電影等一個人咖啡主題曲)
TTITLE8=依靠
TTITLE9=回轉
EXTD=
EXTT0=
EXTT1=
EXTT2=
EXTT3=
EXTT4=
EXTT5=
EXTT6=
EXTT7=
EXTT8=
EXTT9=
PLAYORDER=
